<?xml version="1.0" encoding="UTF-8"?>
<svg id="Layer_1" xmlns="http://www.w3.org/2000/svg" version="1.1" viewBox="0 0 256 256">
  <!-- Generator: Adobe Illustrator 29.1.0, SVG Export Plug-In . SVG Version: 2.1.0 Build 142)  -->
  <defs>
    <style>
      .st0 {
        fill-rule: evenodd;
      }
    </style>
  </defs>
  <path class="st0" d="M183.94,102.16c1.92-2.57,1.3-2.2,6.96-1.6,4.98.63,2.84,1.53,6.61-1.63,3.39-2.92,9.18-6.27,11.76-8.53-1.51-2.2-12.18-8.36-14.99-11.18.75-.56,1.35-1.01,2.18-1.59,1.28-.91.95-.86,2.78-.16,4.01,1.41,16.85,5.9,19.34,6.47,2.81-1.88,10.16-7.47,12.99-7.82,1.34-.16,3.54-.22,3.43,1.51-.34,4.24-7.2,7.79-11.53,10.71-1.75,1.17-1.27,1-1.31,3.14-.09,2.32-.29,19.07-.89,20.03-.28.31-2.65,1.85-3.1,2.18-.52-1.44-.98-3.06-1.35-4.62l-2.49-9.01c-.27-1.49-.83-3.17-1.34-4.53-1.95,1.46-3.93,2.76-5.97,4.24-10.1,7.29-8.77,3.38-10.24,9.79-.89,3.57-.53,5.55-3.84,5.64-.62-6.71-3.18-10.51-9.02-13.03h0Z"/>
  <g>
    <g>
      <path d="M149.09,138.93c.85.66,1.1,1.2,1.66,1.51.92.52,2.45.46,3.59.85,4.14,1.49,4.42,6.36,4.33,9.56,5.62,3.19,5.07-.29,9.53,6.44-.19,2.11-3.06,3.16-4.59,3.95-3.39,1.71-1.61,3.13-3.84,5.81-1.39,1.7-3.39,2.6-4.92,3.63-3.2,2.2-1.57,1.83-4.94,4.15-2.3-.28-1.71,2.93-4.34,2.96-.63.01-1.46-.1-2.16-.17-1.02.89-1.75,1.89-2.63,2.53-1.23.88-8.88,2.73-10.54,3.11-2.91.66-4.61.75-7.8.75-3.39.04-4.88.73-8.36-.54.15-.39.79-1.35,1.55-2.28,3.1-3.8,8.11-8.69,9.65-13.37-1.65-2.72-1.17-1.65-2.65-2.76-.63-.46-.93-.88-1.79-1.2-1.13-.41-1.42-.12-2.31-.98-.18-1.11.56-1.4.9-2.61-.64-1.26-1.25-1.15-.55-2.92-1.58-1.09-1.87-1.81-2.35-3.52-1.39-.53-2-.25-1.79-1.88.02-.13.04-.27.06-.38-14.29,4.49-28.58,8.05-41.87,10.46,8.07,12.44,20.58,22.05,36.02,26.21,33.26,8.97,67.47-10.7,76.45-43.96,2.28-8.47,2.71-16.99,1.52-25.15-10.93,7.18-23.91,13.88-37.82,19.83Z"/>
      <path d="M116.02,128.64c-.26-1.81-.37-1.24-2.32-2.85-1.09-.91-3.03-2.54-4.43-3.13l.33-.72c-.08.07-.14.16-.21.28-1.14-.49-1.49-2.2-2.38-3.01-.86.17-.11.02-.56.32-1.22-.16-1.4.64-4.11-3.04-1.08-1.47-2.6-2.74-4.23-3.83-1.59-2.19.22-2.92-.47-4.27,0-1.23-1.3-1.27-.99-3.94-.66.22-.7.39-1.58.29-.47-1.17-.15-2.46-.73-3.6-.53-1.05-1.61-1.37-1.37-2.87l2.94-8.12c-2.47-3-.34-3.05,1.23-4.15.79-.54,1.05-.84,1.86-1.38,1.55-1.02,2.62-1.4,5.12-.72.32-2.97.77-4.46,1.51-5.3,2.93-3.35-.82-4.98,6.22-6.38,2.56-.52,5.66-1.02,7.79-1.21,7.02-.64,14.35.16,21.3,2.14l-.3,1.1-.04-.03c-1.6-.45-3.61.47-4.85,1.19l.47.63c.32.53.2.24.4.89-1.08,1.95-3.24,1.77-4.99,2.52,3.99,1.43,4.28,3.47,5.33,2.13.69-.86-.04-1.1-.46-1.72.5-1.34.78-.56,1.62-1.91.84-1.35.7-3.63,5.33-1.32,1.82.92.9,1.1,3.3.97,1.55-.07,2.83-.47,2.55,1.46-.38,2.73-1.16,1.44-2.14,2.81.47.66,5.19,3.81,6.04,3.76,1.53-.08,1.66-.58,3.66-.15,6.27,1.34,2.09,3.51,1.85,4.23-.52,1.65,2.27,2.81-1.37,4.16l-2.66.46c.36,1.62,1.51,1.07.79,3.22-.92.24-2.11.27-3.43-.03-1.76-.43-2.17-.89-2.11-2.46-2.8-.54-6.77.34-8.17,1.85.95.7,2.98,1.88,3.13,3.13.23,1.72-1.83,1.78-2.81,3.43-.03.3,1.16,2.06.19,3.86-.81.09-6.28-.62-7.19-1-.47-.88-.34-1.07-.53-2.18-3.09.93-4.18,1.28-4.21,5.49-.03,2.23-1.82,3.16-3.82,3.94-.93.36-.92.21-2.02-.18,2.73-4.33,1.13-2.49.34-5.11-.16-.53-.12-.65-.06-1.2l.09-.68v-.89c-1.81-.89-3.19.14-5.39-.33-1.55-.33-5.07-2.04-6.3-1.68-1.05.87-.68,1.55-1.13,2.81-.9,2.49-1.62-.87-3.88,8.07.87.08,2.52.48,3.12.47.89,0,1.52-.79,2.41-1.13,1.27-.5,4.36-.88,5.73.3.1.38.46-.44-.04.76-.48,1.14-1.53.45-.91,1.49,4.13,2.04,2.35.91,3.17,3.31.19.53.55,1.04.71,1.63.75,2.5-1.15,1.07,1,3.68.4.45.94.94.98,1.67,3.42-.9,6.87-1.86,10.29-2.89-.32-.16-.61-.4-.92-.8.32-1.14,1.14-1.06,1.84-1.47,1.72-.06,1.8-.14,2.99.96.04.03.07.07.1.09,15.64-4.85,30.97-10.92,44.22-18.13-7.12-17.33-21.95-31.27-41.44-36.53-33.24-8.97-67.46,10.72-76.43,43.96-2.25,8.35-2.7,16.77-1.57,24.82,14.41-.64,33.09-3.32,52.6-7.95ZM130.42,119.72l-.76-.19c-.19-.27-1.45-1.4-1.72-1.58-.6-.38-1.56-.58-2.31-.98-1.8-2.08-3.39-1.14-4.47-2.22,1.29-1.83,5.86-.11,6.36-.14,1.21-.06,1.51-.97,2.66.66.58.86,1.05,1.51,2.2,2.36,1.18,1.42,2.86.59,2.66,2.76-1.59.42-3.04-.15-4.62-.66Z"/>
    </g>
    <path d="M145.13,135.73c15.17-6.34,29.32-13.57,40.91-21.37,5.64-3.79,10.69-7.72,14.94-11.74l-1.78-3.12c-4.51,3.17-9.48,6.17-14.79,9.02-17.85,9.56-39.58,17.26-60.92,22.77-1.7.45-3.4.88-5.09,1.3-19.85,4.82-39.08,7.72-54.2,8.44-30.48,1.43-44.29-6-13.06-24.41-43.39,12-37.35,42.25,1.73,43.75,5.53-.53,11.45-1.36,17.62-2.44,14.81-2.62,31.12-6.76,47.31-12.05,9.26-3.03,18.48-6.43,27.35-10.14Z"/>
    <path d="M195.32,116.24c1.85,8.05,2.09,16.52.87,24.8-1.27,8.27-4.05,16.37-8.2,23.72-8.21,14.75-21.92,26.53-37.98,32.21-8.01,2.83-16.51,4.28-24.99,4.19-2.12-.08-4.25,0-6.35-.36l-3.15-.39c-1.05-.14-2.11-.22-3.13-.5l-6.18-1.42c-2.02-.63-4.03-1.27-6-2.05-7.88-3.04-15.2-7.48-21.42-13.09-6.21-5.62-11.41-12.29-15.13-19.67,9.07,13.8,22.46,24.36,37.73,29.5,7.61,2.62,15.66,3.86,23.64,3.79,7.99-.04,15.96-1.44,23.47-4.16,1.85-.75,3.74-1.42,5.56-2.23l5.34-2.71,5.07-3.2c1.66-1.11,3.17-2.43,4.79-3.61,6.22-5.04,11.5-11.2,15.74-18.02,4.19-6.85,7.31-14.43,9.04-22.37,1.77-7.93,2.14-16.2,1.27-24.41Z"/>
    <path d="M54.25,133.08c-1.06-8.2-.53-16.68,1.55-24.79,1.95-8.17,5.6-15.93,10.4-22.87,9.61-13.91,24.41-24.32,40.96-28.44,16.51-4.11,34.49-2.3,49.59,5.41,15.15,7.56,27.22,20.82,33.19,36.26-7.67-14.65-20-26.48-34.69-33.13-3.68-1.62-7.46-3.03-11.35-4.05-3.92-.88-7.84-1.78-11.84-2.02-7.97-.74-16.05-.14-23.8,1.84-7.78,1.87-15.18,5.25-21.83,9.71-6.69,4.42-12.55,10.05-17.43,16.44-2.51,3.16-4.51,6.68-6.46,10.22l-2.6,5.49-2.06,5.73c-2.59,7.72-3.72,15.94-3.63,24.2Z"/>
  </g>
</svg>