<?xml version="1.0" encoding="UTF-8"?>
<svg id="Layer_1" xmlns="http://www.w3.org/2000/svg" version="1.1" viewBox="0 0 1000 1000">
  <!-- Generator: Adobe Illustrator 29.1.0, SVG Export Plug-In . SVG Version: 2.1.0 Build 142)  -->
  <defs>
    <style>
      .st0 {
        fill-rule: evenodd;
      }
    </style>
  </defs>
  <g>
    <path d="M170.39,654.29h-16.39v-13.27h47.93v13.27h-16.39v41.38h-15.15v-41.38Z"/>
    <path d="M208.57,641.02h25.84c8.35,0,14.13,2.19,17.8,5.93,3.2,3.12,4.84,7.34,4.84,12.73v.16c0,8.35-4.45,13.9-11.24,16.78l13.04,19.05h-17.49l-11.01-16.55h-6.64v16.55h-15.15v-54.65ZM233.71,667.25c5.15,0,8.12-2.5,8.12-6.48v-.16c0-4.29-3.12-6.48-8.2-6.48h-9.91v13.11h9.99Z"/>
    <path d="M283.59,640.63h14.6l23.26,55.04h-16.24l-3.98-9.76h-21.08l-3.9,9.76h-15.93l23.26-55.04ZM296.86,674.12l-6.09-15.54-6.17,15.54h12.26Z"/>
    <path d="M322.39,641.02h16.94l12.41,34.58,12.41-34.58h16.63l-22.17,55.04h-14.05l-22.17-55.04Z"/>
    <path d="M386.1,641.02h43.95v12.88h-28.96v8.28h26.23v11.94h-26.23v8.67h29.35v12.88h-44.34v-54.65Z"/>
    <path d="M438.17,641.02h15.15v41.38h26.47v13.27h-41.61v-54.65Z"/>
    <path d="M507.88,641.02h25.84c8.35,0,14.13,2.19,17.8,5.93,3.2,3.12,4.84,7.34,4.84,12.73v.16c0,8.35-4.45,13.9-11.24,16.78l13.04,19.05h-17.49l-11.01-16.55h-6.64v16.55h-15.15v-54.65ZM533.02,667.25c5.15,0,8.12-2.5,8.12-6.48v-.16c0-4.29-3.12-6.48-8.2-6.48h-9.92v13.11h9.99Z"/>
    <path d="M564.02,641.02h43.95v12.88h-28.96v8.28h26.23v11.94h-26.23v8.67h29.35v12.88h-44.34v-54.65Z"/>
    <path d="M614.21,668.5v-.16c0-15.93,12.26-28.42,28.81-28.42,11.16,0,18.35,4.68,23.19,11.4l-11.4,8.82c-3.12-3.9-6.71-6.4-11.94-6.4-7.65,0-13.04,6.48-13.04,14.44v.16c0,8.2,5.39,14.6,13.04,14.6,5.7,0,9.06-2.65,12.33-6.64l11.4,8.12c-5.15,7.1-12.1,12.33-24.2,12.33-15.61,0-28.18-11.94-28.18-28.26Z"/>
    <path d="M671.2,668.5v-.16c0-15.69,12.65-28.42,29.51-28.42s29.35,12.57,29.35,28.26v.16c0,15.69-12.65,28.42-29.51,28.42s-29.35-12.57-29.35-28.26ZM714.61,668.5v-.16c0-7.88-5.7-14.76-14.05-14.76s-13.82,6.71-13.82,14.6v.16c0,7.88,5.7,14.76,13.97,14.76s13.9-6.71,13.9-14.6Z"/>
    <path d="M737.95,641.02h25.84c8.35,0,14.13,2.19,17.8,5.93,3.2,3.12,4.84,7.34,4.84,12.73v.16c0,8.35-4.45,13.9-11.24,16.78l13.04,19.05h-17.49l-11.01-16.55h-6.64v16.55h-15.15v-54.65ZM763.09,667.25c5.15,0,8.12-2.5,8.12-6.48v-.16c0-4.29-3.12-6.48-8.2-6.48h-9.92v13.11h9.99Z"/>
    <path d="M794.08,641.02h21.08c19.52,0,30.84,11.24,30.84,27.01v.16c0,15.77-11.48,27.48-31.15,27.48h-20.77v-54.65ZM815.4,682.24c9.06,0,15.07-5,15.07-13.82v-.16c0-8.74-6.01-13.82-15.07-13.82h-6.17v27.79h6.17Z"/>
  </g>
  <g>
    <path class="st0" d="M618.65,403.6c4.08-5.44,2.77-4.66,14.75-3.4,10.56,1.34,6.02,3.25,14.02-3.45,7.2-6.19,19.48-13.3,24.94-18.09-3.2-4.67-25.83-17.74-31.8-23.71,1.6-1.19,2.87-2.15,4.63-3.37,2.72-1.94,2.02-1.81,5.91-.35,8.5,2.98,35.74,12.51,41.02,13.72,5.97-3.98,21.54-15.85,27.55-16.58,2.84-.33,7.52-.46,7.27,3.2-.71,8.99-15.27,16.52-24.45,22.71-3.71,2.48-2.69,2.11-2.77,6.65-.2,4.92-.62,40.45-1.88,42.48-.6.65-5.62,3.91-6.57,4.63-1.1-3.06-2.09-6.5-2.86-9.79l-5.28-19.12c-.57-3.15-1.77-6.73-2.83-9.61-4.14,3.1-8.34,5.85-12.66,8.99-21.43,15.47-18.6,7.17-21.73,20.77-1.89,7.58-1.12,11.78-8.14,11.97-1.32-14.23-6.75-22.29-19.12-27.64h0Z"/>
    <g>
      <g>
        <path d="M544.72,481.61c1.8,1.4,2.34,2.55,3.53,3.2,1.95,1.11,5.2.98,7.62,1.8,8.78,3.15,9.38,13.5,9.18,20.28,11.91,6.76,10.74-.62,20.21,13.65-.4,4.48-6.5,6.71-9.74,8.37-7.19,3.62-3.42,6.63-8.14,12.32-2.96,3.6-7.18,5.52-10.44,7.7-6.79,4.68-3.33,3.89-10.48,8.79-4.88-.6-3.63,6.21-9.21,6.27-1.34.03-3.1-.22-4.59-.36-2.17,1.89-3.72,4.01-5.58,5.36-2.62,1.86-18.84,5.79-22.35,6.6-6.17,1.39-9.77,1.59-16.54,1.59-7.18.08-10.34,1.54-17.72-1.14.32-.83,1.68-2.87,3.29-4.84,6.57-8.06,17.21-18.43,20.47-28.36-3.49-5.76-2.47-3.5-5.62-5.84-1.33-.98-1.97-1.87-3.8-2.56-2.4-.88-3.02-.26-4.91-2.07-.38-2.35,1.19-2.97,1.92-5.54-1.36-2.68-2.66-2.44-1.16-6.2-3.35-2.3-3.98-3.84-4.98-7.46-2.95-1.12-4.25-.53-3.81-3.99.04-.28.09-.56.12-.81-30.3,9.53-60.62,17.07-88.82,22.19,17.13,26.39,43.66,46.77,76.39,55.6,70.54,19.03,143.12-22.71,162.15-93.24,4.85-17.96,5.75-36.04,3.23-53.35-23.18,15.23-50.71,29.44-80.22,42.05Z"/>
        <path d="M474.58,459.78c-.56-3.83-.79-2.62-4.91-6.04-2.31-1.93-6.43-5.38-9.41-6.64l.71-1.53c-.17.15-.29.35-.45.59-2.42-1.04-3.17-4.66-5.05-6.37-1.82.35-.24.03-1.19.69-2.58-.34-2.97,1.35-8.71-6.45-2.28-3.12-5.53-5.82-8.97-8.12-3.37-4.65.47-6.19-1.01-9.06.02-2.6-2.76-2.7-2.11-8.35-1.4.47-1.49.83-3.36.62-.99-2.48-.31-5.23-1.55-7.64-1.13-2.22-3.41-2.91-2.91-6.09l6.24-17.23c-5.25-6.36-.73-6.48,2.6-8.8,1.68-1.14,2.24-1.77,3.95-2.94,3.29-2.17,5.55-2.96,10.86-1.53.69-6.29,1.64-9.45,3.2-11.25,6.21-7.11-1.74-10.56,13.19-13.53,5.44-1.1,12.01-2.16,16.51-2.58,14.88-1.36,30.44.34,45.19,4.54l-.63,2.34-.08-.05c-3.39-.95-7.66.99-10.28,2.53l1,1.35c.67,1.13.42.5.86,1.89-2.29,4.13-6.87,3.74-10.59,5.35,8.46,3.03,9.08,7.36,11.31,4.52,1.47-1.82-.09-2.33-.97-3.65,1.06-2.84,1.65-1.18,3.44-4.05,1.78-2.87,1.49-7.7,11.3-2.81,3.87,1.95,1.91,2.34,7,2.05,3.3-.15,5.99-.99,5.42,3.09-.82,5.8-2.45,3.05-4.54,5.97.99,1.41,11,8.08,12.82,7.98,3.24-.17,3.52-1.23,7.77-.31,13.29,2.84,4.44,7.45,3.93,8.97-1.11,3.51,4.81,5.95-2.9,8.82l-5.64.99c.77,3.43,3.2,2.26,1.67,6.83-1.96.51-4.49.58-7.27-.07-3.73-.91-4.6-1.89-4.48-5.21-5.94-1.15-14.35.72-17.33,3.92,2.01,1.49,6.31,3.98,6.64,6.64.48,3.65-3.88,3.77-5.97,7.28-.07.63,2.46,4.38.4,8.18-1.71.19-13.32-1.31-15.24-2.13-.99-1.86-.72-2.28-1.13-4.63-6.55,1.97-8.87,2.72-8.94,11.65-.07,4.73-3.86,6.7-8.11,8.36-1.97.77-1.94.45-4.29-.38,5.8-9.18,2.4-5.28.71-10.84-.34-1.13-.25-1.37-.13-2.54l.19-1.44v-1.89c-3.83-1.88-6.76.29-11.44-.71-3.3-.69-10.74-4.33-13.36-3.57-2.22,1.84-1.44,3.29-2.39,5.96-1.91,5.28-3.44-1.84-8.23,17.11,1.84.17,5.36,1.02,6.63,1.01,1.88.02,3.22-1.67,5.11-2.4,2.7-1.06,9.26-1.86,12.16.64.21.8.97-.94-.08,1.61-1.01,2.43-3.25.95-1.93,3.16,8.76,4.32,4.98,1.93,6.73,7.02.41,1.12,1.16,2.2,1.51,3.47,1.59,5.31-2.44,2.27,2.13,7.8.85.95,2,2,2.07,3.55,7.25-1.92,14.57-3.95,21.83-6.12-.69-.35-1.3-.84-1.95-1.7.69-2.42,2.43-2.24,3.9-3.11,3.65-.12,3.82-.3,6.35,2.04.08.05.16.14.21.19,33.17-10.29,65.68-23.16,93.79-38.45-15.11-36.75-46.55-66.33-87.9-77.48-70.51-19.02-143.09,22.74-162.12,93.25-4.78,17.72-5.72,35.56-3.33,52.64,30.57-1.35,70.18-7.04,111.57-16.87ZM505.14,440.85l-1.62-.4c-.4-.56-3.07-2.98-3.65-3.36-1.28-.8-3.32-1.22-4.91-2.07-3.82-4.42-7.19-2.43-9.47-4.7,2.74-3.88,12.43-.23,13.49-.3,2.57-.12,3.19-2.07,5.65,1.39,1.23,1.83,2.23,3.2,4.67,5,2.51,3.02,6.08,1.25,5.65,5.85-3.36.88-6.46-.31-9.81-1.41Z"/>
      </g>
      <path d="M536.34,474.82c32.17-13.45,62.19-28.79,86.76-45.33,11.96-8.03,22.68-16.37,31.68-24.91l-3.78-6.62c-9.56,6.73-20.1,13.1-31.36,19.14-37.86,20.28-83.96,36.62-129.22,48.29-3.61.95-7.21,1.86-10.8,2.75-42.11,10.22-82.89,16.37-114.97,17.9-64.64,3.03-93.95-12.72-27.69-51.77-92.04,25.45-79.22,89.61,3.67,92.81,11.73-1.13,24.28-2.89,37.36-5.18,31.41-5.55,66-14.35,100.34-25.56,19.63-6.42,39.19-13.64,58.01-21.52Z"/>
      <path d="M642.79,433.47c3.92,17.08,4.44,35.04,1.84,52.6-2.7,17.54-8.59,34.71-17.38,50.3-17.42,31.28-46.49,56.27-80.55,68.31-16.99,6-35.02,9.07-53.01,8.89-4.5-.16-9.01-.02-13.46-.77l-6.69-.84c-2.23-.3-4.47-.47-6.64-1.07l-13.12-3.02c-4.28-1.34-8.55-2.69-12.72-4.35-16.71-6.45-32.23-15.86-45.43-27.76-13.16-11.92-24.2-26.08-32.09-41.72,19.23,29.26,47.64,51.67,80.03,62.57,16.14,5.55,33.21,8.19,50.14,8.03,16.95-.09,33.86-3.05,49.79-8.82,3.92-1.59,7.92-3.01,11.79-4.73l11.34-5.76,10.75-6.79c3.53-2.34,6.73-5.15,10.16-7.65,13.2-10.68,24.4-23.75,33.38-38.23,8.9-14.52,15.51-30.61,19.18-47.44,3.76-16.83,4.55-34.36,2.68-51.77Z"/>
      <path d="M343.56,469.2c-2.25-17.39-1.13-35.38,3.28-52.59,4.13-17.32,11.88-33.78,22.06-48.51,20.39-29.49,51.78-51.59,86.89-60.32,35.02-8.71,73.15-4.87,105.18,11.47,32.14,16.04,57.73,44.15,70.4,76.91-16.28-31.07-42.41-56.16-73.58-70.27-7.81-3.44-15.82-6.43-24.07-8.59-8.31-1.87-16.62-3.77-25.12-4.29-16.9-1.57-34.05-.29-50.48,3.91-16.51,3.97-32.2,11.13-46.3,20.6-14.19,9.38-26.62,21.31-36.97,34.88-5.32,6.71-9.57,14.16-13.7,21.67l-5.52,11.65-4.36,12.16c-5.5,16.38-7.88,33.81-7.71,51.33Z"/>
    </g>
  </g>
</svg>